<svg xmlns="http://www.w3.org/2000/svg" viewBox="0 0 370 99.85742669653852">
    <g
       transform="matrix(1.1111111111111112,0,0,1.1111111111111112,-5.555555555555555,-4.988889270358616)"
       fill="#111111">
        <path d="M13.3,14.78a3.44,3.44,0,1,0,3.44,3.44A3.45,3.45,0,0,0,13.3,14.78Zm0,4.89a1.44,1.44,0,1,1,1.44-1.44A1.45,1.45,0,0,1,13.3,19.67Zm16.62-4.89a3.44,3.44,0,1,0,3.44,3.44A3.45,3.45,0,0,0,29.93,14.78Zm0,4.89a1.44,1.44,0,1,1,1.44-1.44A1.45,1.45,0,0,1,29.93,19.67Zm-8.31-4.89a3.44,3.44,0,1,0,3.44,3.44A3.45,3.45,0,0,0,21.62,14.78Zm0,4.89a1.44,1.44,0,1,1,1.44-1.44A1.45,1.45,0,0,1,21.62,19.67ZM94,9.89H6a1,1,0,0,0-1,1V89.11a1,1,0,0,0,1,1H94a1,1,0,0,0,1-1V10.89A1,1,0,0,0,94,9.89Zm-87,2H93V24.56H7V11.89ZM7,88.11V26.56H93V88.11H7ZM40.85,75.22A1,1,0,0,1,40,73.74L58.78,40a1,1,0,1,1,1.75,1L41.73,74.71A1,1,0,0,1,40.85,75.22Zm25-2a1,1,0,0,1-.71-1.71L79.45,57.16,65.14,42.84a1,1,0,0,1,1.41-1.41l15,15a1,1,0,0,1,.29.71,1.2,1.2,0,0,1-.29.79l-15,15A1,1,0,0,1,65.84,73.19Zm-31.69,0a1,1,0,0,1-.71-0.29l-15-15a1,1,0,0,1-.29-0.71,1.2,1.2,0,0,1,.29-0.79l15-15a1,1,0,0,1,1.41,1.41L20.55,57.16,34.86,71.48A1,1,0,0,1,34.16,73.19Z"
              fill="#111111"/>
    </g>
    <g
       transform="matrix(1.5695631960422176,0,0,1.5695631960422176,119.74886657310583,-12.744854469092662)"
       fill="#111111">
        <path d="M19.6 12.04 l1.28 1.36 l-0.96 1.56 l0.76 2.08 l-6.92 0.48 l0.16 23 l-1.88 -0.12 l-1.6 0.96 l-1.4 -1.4 l-2.12 1.04 l-0.16 -22.96 l-5.04 0.36 l-0.8 -2.8 l0.6 -1.88 l-1.36 -2.28 l20.2 -1.4 z M35.519999999999996 23.08 c4.92 -3.2 2.96 -7 -2.8 -6.52 c-0.48 0.04 -1.04 0.08 -1.68 0.12 l0.32 9.08 c1.4 -0.88 2.76 -1.76 4.16 -2.68 z M40.120000000000005 28.48 l4.96 10.56 l-1.68 1.76 l-2.72 0 l-1.6 1.92 l-4.88 -10.32 c-0.84 0.48 -1.68 0.92 -2.56 1.36 l0.24 6.88 l-2.12 -0.04 l-1.44 1.12 l-1.48 -1.4 l-1.96 1.04 l-0.8 -24.04 l-2 0.2 l0.88 -2.44 l-1.32 -1.68 l0.68 -1.04 l-0.84 -1.76 s7.84 -1.08 11.64 -1.04 c4.52 0.04 9.6 0.76 11.68 5.64 c2.24 5.4 -0.28 9.72 -4.68 13.28 z M67.48 10 l2.28 0.76 l-7.6 16.12 l0.24 13.52 l-1.84 -0.24 l-1.6 0.72 l-1.4 -0.72 l-2.12 1.16 l-0.28 -14 l-9.48 -14.44 l3.2 -0.28 l0.2 -1.56 l2.8 -1.48 l6.24 9.48 l5.16 -10.92 l2.44 0.12 l0.68 2.04 z M92.84 34.6 c-2.24 5.44 -7.96 7.08 -11.56 7.08 c-5.2 0 -9.32 -2.72 -10.92 -4 l0.68 -2.08 l0.76 -0.52 l-0.8 -1.28 l1.72 -2.52 c2.12 1.68 4.72 3.4 8.4 3.4 c2.64 0 5.2 -1.52 5.84 -3.76 c-0.8 -0.28 -1.8 -0.44 -3.04 -0.56 c-1.56 -0.16 -3.24 -0.24 -4.84 -0.48 c-3.16 -0.44 -6.6 -1.52 -7.16 -5.36 c-0.92 -6.44 9.48 -14.44 14 -15.4 l0.64 1.52 l1.48 0.08 l0.56 1.44 l1.52 0.84 l-0.12 7.32 l-2.64 0.92 l-2.08 -1.36 l-1.92 1.08 l0.04 -3.28 c-1.64 1.04 -3.08 2.8 -4.24 5.16 c1.6 0.32 3.28 0.48 4.92 0.68 c2.2 0.24 4.6 0.64 6.48 1.56 c3 1.52 4.4 4.24 2.28 9.52 z M111.88 12.04 l1.28 1.36 l-0.96 1.56 l0.76 2.08 l-6.92 0.48 l0.16 23 l-1.88 -0.12 l-1.6 0.96 l-1.4 -1.4 l-2.12 1.04 l-0.16 -22.96 l-5.04 0.36 l-0.8 -2.8 l0.6 -1.88 l-1.36 -2.28 l20.2 -1.4 z M134.60000000000002 37.56 l0.92 1.96 l-16.24 2.76 l-0.24 -1.88 l-1.8 0.04 l0.28 -2 l-1.92 -0.08 l0.6 -20.6 l-2 0 l0.96 -2 l-1 -1.28 l0.6 -1.52 l-0.4 -2.04 l18.64 -0.92 l0.68 3.16 l-1.12 1.24 l0.92 2.6 l-10.24 0.48 l-0.16 5.4 l9.32 -1.12 l-0.88 2.6 l1.4 1.24 l-0.76 3.2 l-9.28 1.16 l-0.12 4.56 l12.16 -2 l-0.8 2.36 l1.24 1.2 z M157.4 10.760000000000002 l2.04 -0.08 l-1.16 30.36 l-1.68 -1.68 l-0.64 2.32 l-10.96 -15.72 l0.52 14.08 l-2.16 0.36 l-1.64 -0.88 l-0.8 1.32 l-2.48 -0.24 l-0.84 -29.84 l2.04 0.8 l1.6 -1.44 l2.84 0.68 l7.96 12.36 l0.4 -12.96 l1.84 0.72 l1.6 -1.6 z"
              fill="#111111"/>
    </g>
    <g
       transform="matrix(1.795654560351163,0,0,1.795654560351163,126,63.87250766313037)" fill="#111111">
        <path d="M7.84 5.720000000000001 l1.92 0 l-1.86 14.28 l-1.98 0 l-1 -7.16 l-0.94 7.16 l-1.98 0 l-2 -14.28 l1.92 0 l1.04 7.36 l0.96 -7.36 l1.92 0 l1.04 7.36 z M17.955 12.46 l-2.76 0 l0 5.64 l2.78 0 l0 1.9 l-4.68 0 l0 -14.28 l4.68 0 l0 1.9 l-2.78 0 l0 2.94 l2.76 0 l0 1.9 z M26.169999999999998 11.52 c0.44 0.44 0.72 1.04 0.72 1.7 l0 4.38 c0 1.32 -1.08 2.4 -2.4 2.4 l-2.96 0 l-0.02 -14.24 l2.64 0 c1.46 0.06 2.32 1.46 2.3 2.78 l-0.02 1.98 c0 0.36 -0.1 0.7 -0.26 1 z M24.49 18.08 c0.28 0 0.5 -0.22 0.5 -0.48 l-0.02 -4.38 c0 -0.28 -0.22 -0.48 -0.48 -0.48 l-1.06 0 l0 5.34 l1.06 0 z M23.409999999999997 7.66 l0 3.16 l0.8 0 c0.16 0 0.32 -0.14 0.32 -0.32 l0.02 -1.98 c0 -0.4 -0.2 -0.84 -0.48 -0.86 l-0.66 0 z M39.459999999999994 20.02 l-2.5 0 l0 -14.26 l2.5 0 c1.7 0 3.06 1.38 3.06 3.08 l0 8.1 c0 0.82 -0.32 1.6 -0.9 2.18 s-1.34 0.9 -2.16 0.9 z M38.85999999999999 7.68 l0 10.42 l0.6 0 c0.3 0 0.6 -0.12 0.82 -0.34 s0.34 -0.5 0.34 -0.82 l0 -8.1 c0 -0.64 -0.52 -1.16 -1.16 -1.16 l-0.6 0 z M50.71499999999999 12.46 l-2.76 0 l0 5.64 l2.78 0 l0 1.9 l-4.68 0 l0 -14.28 l4.68 0 l0 1.9 l-2.78 0 l0 2.94 l2.76 0 l0 1.9 z M58.24999999999999 20 l-1.98 0 l-2 -14.28 l1.92 0 l1.04 7.36 l0.96 -7.36 l1.92 0 z M68.16499999999999 12.46 l-2.76 0 l0 5.64 l2.78 0 l0 1.9 l-4.68 0 l0 -14.28 l4.68 0 l0 1.9 l-2.78 0 l0 2.94 l2.76 0 l0 1.9 z M73.6 18.12 l2.76 0 l0 1.88 l-4.64 0 l0 -14.36 l1.88 0 l0 12.48 z M82.595 20.02 c-1.5 0 -2.7 -1.22 -2.7 -2.7 l0 -8.98 c0 -1.48 1.2 -2.68 2.7 -2.68 c1.48 0 2.68 1.2 2.68 2.68 l0 8.98 c0 1.48 -1.2 2.7 -2.68 2.7 z M82.595 7.5600000000000005 c-0.44 0 -0.78 0.36 -0.78 0.78 l0 8.98 c0 0.44 0.34 0.78 0.78 0.78 c0.42 0 0.78 -0.34 0.78 -0.78 l0 -8.98 c0 -0.42 -0.36 -0.78 -0.78 -0.78 z M90.71000000000001 17 l0 2.98 l-1.9 0 l0 -14.26 l2.96 0 c1.32 0 2.38 1.08 2.38 2.4 l0 6.5 c0 1.32 -1.06 2.38 -2.38 2.38 l-1.06 0 z M90.71000000000001 7.619999999999999 l0 7.48 l1.06 0 c0.28 0 0.48 -0.2 0.48 -0.48 l0 -6.5 c0 -0.28 -0.2 -0.5 -0.48 -0.5 l-1.06 0 z M102.345 12.46 l-2.76 0 l0 5.64 l2.78 0 l0 1.9 l-4.68 0 l0 -14.28 l4.68 0 l0 1.9 l-2.78 0 l0 2.94 l2.76 0 l0 1.9 z M111.38000000000001 20.04 l-2.04 0 l-1.1 -3.02 l-0.44 0 l0 3.02 l-1.9 0 l0 -14.32 l2.98 0 c1.32 0 2.38 1.06 2.38 2.38 l0 6.54 c0 0.86 -0.44 1.6 -1.12 2.02 z M107.80000000000001 7.619999999999999 l0 7.5 l1.08 0 c0.26 0 0.48 -0.22 0.48 -0.48 l0 -6.54 c0 -0.26 -0.22 -0.48 -0.48 -0.48 l-1.08 0 z"
              fill="#111111"/>
    </g>
</svg>